<svg data-v-423bf9ae="" xmlns="http://www.w3.org/2000/svg" viewBox="0 0 300 300" class="iconLeft"><!----><!----><!----><g data-v-423bf9ae="" id="5914d4f1-26cb-49eb-a6c8-d3f598dfd278" fill="#ffffff" transform="matrix(1,0,0,1,0,45)"><path d=""></path></g><!----><g data-v-423bf9ae="" id="2075c706-c06c-4666-a86b-fb9e9cdfb816" transform="matrix(3.75,0,0,3.75,36.125,-20.125)" stroke="none" fill="#D1793F"><path d="M8.5 5.5v6h6v-6h-6zm4 4h-2v-2h2v2zM-9.5 29.5h6v-6h-6v6zm2-4h2v2h-2v-2zM-1.97 23.03l-1.06-1.06 2-2 1.06 1.06zM2.03 19.03L.97 17.97l2-2 1.06 1.06zM6.03 15.03l-1.06-1.06 2-2 1.06 1.06z"></path></g><!----></svg>