<svg data-v-423bf9ae="" xmlns="http://www.w3.org/2000/svg" viewBox="0 0 433 90" class="iconLeftSlogan"><!----><!----><!----><g data-v-423bf9ae="" id="a5c97163-dfb7-4cc3-8379-6527980cd788" fill="black" transform="matrix(5.9880242347717285,0,0,5.9880242347717285,102.874267578125,-21.79640769958496)"><path d="M2.07 13.50C2.07 7.24 2.07 5.61 2.06 5.01C2.44 6.05 2.74 6.80 5.47 13.50L6.23 13.50C8.97 6.79 9.25 6.06 9.65 5.03L9.65 13.50L10.51 13.50L10.51 3.82L9.20 3.82C6.47 10.53 6.20 11.26 5.88 12.15C5.54 11.24 5.24 10.50 2.51 3.82L1.19 3.82L1.19 13.50ZM18.59 13.50L18.59 12.64L13.79 12.64L13.79 3.82L12.91 3.82L12.91 13.50ZM19.24 11.96C20.08 12.98 21.45 13.66 23.09 13.66C25.33 13.66 26.66 12.70 26.66 10.96C26.66 9.60 26.03 8.78 24.07 8.34L22.57 8.01C21.11 7.67 20.75 7.11 20.75 6.26C20.75 5.46 21.21 4.47 23.10 4.47C24.29 4.47 25.27 4.94 25.86 5.61L26.47 4.94C25.54 3.95 24.43 3.64 23.17 3.64C20.97 3.64 19.80 4.68 19.80 6.34C19.80 7.57 20.43 8.48 21.99 8.83L23.45 9.17C25.34 9.59 25.69 10.21 25.69 11.06C25.69 11.87 25.20 12.82 23.16 12.82C21.78 12.82 20.59 12.22 19.91 11.33ZM31.37 13.50L31.37 4.68L34.68 4.68L34.68 3.82L27.19 3.82L27.19 4.68L30.46 4.68L30.46 13.50ZM35.43 13.50L35.43 12.05L34.34 12.05L34.34 13.50ZM38.23 13.50C38.23 7.24 38.23 5.61 38.22 5.01C38.60 6.05 38.91 6.80 41.64 13.50L42.39 13.50C45.14 6.79 45.42 6.06 45.81 5.03L45.81 13.50L46.68 13.50L46.68 3.82L45.36 3.82C42.63 10.53 42.36 11.26 42.04 12.15C41.71 11.24 41.40 10.50 38.67 3.82L37.35 3.82L37.35 13.50ZM55.02 13.50L55.02 12.64L49.95 12.64L49.95 8.89L54.61 8.89L54.61 8.04L49.95 8.04L49.95 4.68L54.84 4.68L54.84 3.82L49.07 3.82L49.07 13.50Z"></path></g><!----><g data-v-423bf9ae="" id="3cf07975-5fa9-40a6-be12-23b7b9693769" transform="matrix(3.75,0,0,3.75,36.125,-20.125)" stroke="none" fill="black"><path d="M8.5 5.5v6h6v-6h-6zm4 4h-2v-2h2v2zM-9.5 29.5h6v-6h-6v6zm2-4h2v2h-2v-2zM-1.97 23.03l-1.06-1.06 2-2 1.06 1.06zM2.03 19.03L.97 17.97l2-2 1.06 1.06zM6.03 15.03l-1.06-1.06 2-2 1.06 1.06z"></path></g><!----><g data-v-423bf9ae="" id="e762583b-5530-4d34-9f8f-1d5de5178b91" fill="black" transform="matrix(0.6511496901512146,0,0,0.6511496901512146,109.26419067382812,58.63258743286133)"><path d="M8.93 2.21L5.67 6.61L2.35 2.21L1.13 2.21L1.13 11.48L2.18 11.48L2.18 3.81L5.67 8.22L9.10 3.81L9.10 11.48L10.15 11.48L10.15 2.21ZM23.53 2.10C20.72 2.10 18.83 4.21 18.83 6.85C18.83 9.48 20.72 11.59 23.53 11.59C26.35 11.59 28.24 9.48 28.24 6.85C28.24 4.21 26.35 2.10 23.53 2.10ZM23.53 10.57C21.28 10.57 19.88 8.93 19.88 6.85C19.88 4.76 21.28 3.12 23.53 3.12C25.79 3.12 27.19 4.76 27.19 6.85C27.19 8.93 25.79 10.57 23.53 10.57ZM37.97 7.92L41.19 7.92L43.43 11.48L44.67 11.48L42.24 7.74C43.27 7.50 44.48 6.90 44.48 5.11C44.48 3.35 43.26 2.21 41.36 2.21L36.92 2.21L36.92 11.48L37.97 11.48ZM37.97 3.21L41.23 3.21C42.55 3.21 43.43 3.93 43.43 5.11C43.43 6.55 42.17 6.93 41.17 6.93L37.97 6.93ZM60.10 3.22L60.10 2.21L53.28 2.21L53.28 11.48L60.10 11.48L60.10 10.47L54.33 10.47L54.33 7.35L59.49 7.35L59.49 6.33L54.33 6.33L54.33 3.22ZM85.36 2.21L77.84 2.21L77.84 3.22L81.07 3.22L81.07 11.48L82.12 11.48L82.12 3.22L85.36 3.22ZM100.13 2.21L100.13 6.33L94.74 6.33L94.74 2.21L93.69 2.21L93.69 11.48L94.74 11.48L94.74 7.35L100.13 7.35L100.13 11.48L101.18 11.48L101.18 2.21ZM114.60 2.21L113.29 2.21L109.35 11.48L110.52 11.48L111.65 8.79L116.24 8.79L117.38 11.48L118.54 11.48ZM112.06 7.83L113.95 3.30L115.84 7.83ZM133.66 2.21L133.66 10.01L127.93 2.21L126.71 2.21L126.71 11.48L127.76 11.48L127.76 3.65L133.49 11.48L134.71 11.48L134.71 2.21ZM154.57 4.65C154.57 4.03 154.94 3.08 157.04 3.08C158.73 3.08 159.52 3.82 159.63 4.75L160.71 4.75C160.62 3.36 159.50 2.10 157.04 2.10C154.71 2.10 153.55 3.15 153.55 4.66C153.55 7.84 159.89 6.69 159.89 8.96C159.89 10.05 158.91 10.60 157.35 10.60C155.74 10.60 154.43 10.05 154.36 8.71L153.27 8.71C153.41 10.37 154.53 11.59 157.28 11.59C159.56 11.59 160.94 10.64 160.94 8.92C160.94 5.68 154.57 6.80 154.57 4.65ZM176.01 2.21L176.01 6.33L170.62 6.33L170.62 2.21L169.57 2.21L169.57 11.48L170.62 11.48L170.62 7.35L176.01 7.35L176.01 11.48L177.06 11.48L177.06 2.21ZM190.44 2.10C187.63 2.10 185.74 4.21 185.74 6.85C185.74 9.48 187.63 11.59 190.44 11.59C193.26 11.59 195.15 9.48 195.15 6.85C195.15 4.21 193.26 2.10 190.44 2.10ZM190.44 10.57C188.19 10.57 186.79 8.93 186.79 6.85C186.79 4.76 188.19 3.12 190.44 3.12C192.70 3.12 194.10 4.76 194.10 6.85C194.10 8.93 192.70 10.57 190.44 10.57ZM204.88 7.92L208.10 7.92L210.34 11.48L211.58 11.48L209.15 7.74C210.18 7.50 211.39 6.90 211.39 5.11C211.39 3.35 210.17 2.21 208.26 2.21L203.83 2.21L203.83 11.48L204.88 11.48ZM204.88 3.21L208.14 3.21C209.45 3.21 210.34 3.93 210.34 5.11C210.34 6.55 209.08 6.93 208.08 6.93L204.88 6.93ZM226.77 2.21L219.25 2.21L219.25 3.22L222.49 3.22L222.49 11.48L223.54 11.48L223.54 3.22L226.77 3.22ZM241.92 3.22L241.92 2.21L235.10 2.21L235.10 11.48L241.92 11.48L241.92 10.47L236.15 10.47L236.15 7.35L241.30 7.35L241.30 6.33L236.15 6.33L236.15 3.22ZM257.56 2.21L257.56 10.01L251.83 2.21L250.61 2.21L250.61 11.48L251.66 11.48L251.66 3.65L257.39 11.48L258.61 11.48L258.61 2.21ZM268.93 2.21L267.88 2.21L267.88 11.48L268.93 11.48ZM285.14 2.21L285.14 10.01L279.41 2.21L278.19 2.21L278.19 11.48L279.24 11.48L279.24 3.65L284.97 11.48L286.19 11.48L286.19 2.21ZM299.43 2.10C296.65 2.10 294.87 4.21 294.87 6.85C294.87 9.48 296.58 11.59 299.40 11.59C301.08 11.59 302.18 10.74 302.76 9.84L302.76 11.48L303.73 11.48L303.73 6.55L299.38 6.55L299.38 7.50L302.76 7.50C302.76 9.44 301.17 10.57 299.49 10.57C297.23 10.57 295.92 8.93 295.92 6.85C295.92 4.76 297.26 3.12 299.52 3.12C300.93 3.12 301.94 3.74 302.50 4.73L303.65 4.73C302.96 3.18 301.42 2.10 299.43 2.10ZM322.56 2.21L322.56 11.48L328.66 11.48L328.66 10.47L323.61 10.47L323.61 2.21ZM338.07 2.21L337.02 2.21L337.02 11.48L338.07 11.48ZM354.28 2.21L354.28 10.01L348.56 2.21L347.34 2.21L347.34 11.48L348.39 11.48L348.39 3.65L354.12 11.48L355.33 11.48L355.33 2.21ZM372.29 2.21L370.80 2.21L365.65 7.04L365.65 2.21L364.60 2.21L364.60 11.48L365.65 11.48L365.65 8.44L367.57 6.65L371.20 11.48L372.51 11.48L368.34 5.94ZM381.19 4.65C381.19 4.03 381.56 3.08 383.66 3.08C385.35 3.08 386.13 3.82 386.25 4.75L387.32 4.75C387.24 3.36 386.12 2.10 383.66 2.10C381.33 2.10 380.17 3.15 380.17 4.66C380.17 7.84 386.51 6.69 386.51 8.96C386.51 10.05 385.53 10.60 383.96 10.60C382.35 10.60 381.05 10.05 380.98 8.71L379.89 8.71C380.03 10.37 381.15 11.59 383.89 11.59C386.18 11.59 387.56 10.64 387.56 8.92C387.56 5.68 381.19 6.80 381.19 4.65ZM395.79 10.05L395.79 11.48L397.15 11.48L397.15 10.05Z"></path></g></svg>